<?xml version="1.0" encoding="UTF-8" standalone="no"?>
<svg width="1200px" height="900px" viewBox="0 0 1200 900" version="1.1" xmlns="http://www.w3.org/2000/svg" xmlns:xlink="http://www.w3.org/1999/xlink" xmlns:sketch="http://www.bohemiancoding.com/sketch/ns">
    <!-- Generator: Sketch 3.1.1 (8761) - http://www.bohemiancoding.com/sketch -->
    <title>Artboard 4_clear</title>
    <desc>Created with Sketch.</desc>
    <defs></defs>
    <g id="Page-1" stroke="none" stroke-width="1" fill="none" fill-rule="evenodd" sketch:type="MSPage">
        <g id="Artboard-4" sketch:type="MSArtboardGroup">
            <rect id="Back" fill="#EFEFEF" sketch:type="MSShapeGroup" x="0" y="0" width="1200" height="600"></rect>
            <g id="Imported-Layers-2" sketch:type="MSLayerGroup" transform="translate(901.000000, 454.000000)">
                <path d="M123.140906,32.6206562 C123.212177,32.669 123.284873,32.7187656 123.347591,32.7671094 C123.290575,32.6647344 123.22358,32.6078594 123.140906,32.6206562" id="Fill-1" fill="#221E15" sketch:type="MSShapeGroup"></path>
                <path d="M108.261006,211.687328 C94.7466519,215.530656 -21.8878785,135.363922 4.0760442,109.780125 C30.0399669,84.19775 97.4977017,64.939875 97.1427735,121.376938 C96.917558,157.260797 132.618486,204.759953 120.439746,208.223641 L108.261006,211.687328 L108.261006,211.687328 Z" id="Fill-2" fill="#221E15" sketch:type="MSShapeGroup"></path>
                <path d="M108.261006,211.687328 C94.7466519,215.530656 -21.8878785,135.363922 4.0760442,109.780125 C30.0399669,84.19775 97.4977017,64.939875 97.1427735,121.376938 C96.917558,157.260797 132.618486,204.759953 120.439746,208.223641 L108.261006,211.687328 L108.261006,211.687328 Z" id="Stroke-3" stroke="#514A3D" stroke-width="2" stroke-linecap="round" sketch:type="MSShapeGroup"></path>
                <path d="M7.73080663,106.454359 C9.37430939,139.680734 109.140486,210.808609 109.140486,210.808609 M20.5581105,97.517875 C37.1499337,152.0155 116.125017,212.103937 114.460133,209.924203 M33.8315691,91.0668281 C67.5098343,123.812609 118.144829,208.876281 118.144829,208.876281 M57.2083646,85.5954531 C88.8240552,123.959062 120.439746,208.223641 120.439746,208.223641 M15.2099558,146.909547 C15.2099558,146.909547 43.1167182,96.1386562 95.9112155,108.951172 M37.6659337,168.667078 C37.6659337,168.667078 49.8689061,133.037734 99.1511823,137.958844" id="Stroke-4" stroke="#514A3D" stroke-width="2" stroke-linecap="round" stroke-linejoin="round" sketch:type="MSShapeGroup"></path>
                <path d="M68.4092707,191.943172 C68.4092707,191.943172 78.6394696,162.322672 109.140486,168.667078" id="Stroke-5" stroke="#514A3D" stroke-width="2" stroke-linecap="round" sketch:type="MSShapeGroup"></path>
                <path d="M119.949403,126.157281 C115.228431,145.056844 106.291083,240.615375 122.31274,248.174062 C139.997856,256.517625 181.91074,253.754922 200.061967,249.480766 C211.68337,246.743656 205.033812,144.195187 203.367503,132.619703 C197.948077,94.9556562 130.423348,84.2261875 119.949403,126.157281" id="Fill-6" fill="#E4C896" sketch:type="MSShapeGroup"></path>
                <path d="M204.668906,47.4351719 C209.804674,47.4351719 209.813227,39.4726719 204.668906,39.4726719 C199.533138,39.4726719 199.524586,47.4351719 204.668906,47.4351719" id="Fill-7" fill="#1A1918" sketch:type="MSShapeGroup"></path>
                <path d="M136.650983,47.4351719 C141.786751,47.4351719 141.795304,39.4726719 136.650983,39.4726719 C131.515215,39.4726719 131.506663,47.4351719 136.650983,47.4351719" id="Fill-8" fill="#1A1918" sketch:type="MSShapeGroup"></path>
                <path d="M144.309735,49.75425 C144.308309,49.75425 158.009392,40.2717656 168.906685,40.3002031 C181.346276,40.3314844 194.703834,49.879375 194.703834,49.879375 C184.657514,53.3686562 211.783149,82.0322344 206.181271,85.6125156 C196.458519,97.1624063 147.04653,99.4345625 130.423348,84.2261875 C126.078685,80.250625 154.150796,51.0296719 144.309735,49.75425 L144.309735,49.75425 Z" id="Fill-9" fill="#221E15" sketch:type="MSShapeGroup"></path>
                <path d="M144.309735,49.75425 C144.308309,49.75425 158.009392,40.2717656 168.906685,40.3002031 C181.346276,40.3314844 194.703834,49.879375 194.703834,49.879375 C184.657514,53.3686562 211.783149,82.0322344 206.181271,85.6125156 C196.458519,97.1624063 147.04653,99.4345625 130.423348,84.2261875 C126.078685,80.250625 154.150796,51.0296719 144.309735,49.75425 L144.309735,49.75425 Z" id="Stroke-10" stroke="#514A3D" stroke-linecap="round" sketch:type="MSShapeGroup"></path>
                <path d="M155.916884,85.4760156 L159.543138,84.2617344" id="Fill-11" fill="#221E15" sketch:type="MSShapeGroup"></path>
                <path d="M155.916884,85.4760156 L159.543138,84.2617344" id="Stroke-12" stroke="#7A634B" stroke-linecap="round" sketch:type="MSShapeGroup"></path>
                <path d="M167.675127,84.345625 L170.634287,85.9338594" id="Fill-13" fill="#221E15" sketch:type="MSShapeGroup"></path>
                <path d="M167.675127,84.345625 L170.634287,85.9338594" id="Stroke-14" stroke="#7A634B" stroke-linecap="round" sketch:type="MSShapeGroup"></path>
                <path d="M153.690387,50.4310625 C160.73621,47.194875 180.476773,48.0650625 185.628221,50.4310625" id="Stroke-15" stroke="#514A3D" stroke-linecap="round" sketch:type="MSShapeGroup"></path>
                <path d="M108.261006,211.687328 C94.7466519,215.530656 -21.8878785,135.363922 4.0760442,109.780125 C30.0399669,84.19775 97.4977017,64.939875 97.1427735,121.376938 C96.917558,157.260797 132.618486,204.759953 120.439746,208.223641 L108.261006,211.687328 L108.261006,211.687328 Z" id="Fill-16" fill="#221E15" sketch:type="MSShapeGroup"></path>
                <path d="M108.261006,211.687328 C94.7466519,215.530656 -21.8878785,135.363922 4.0760442,109.780125 C30.0399669,84.19775 97.4977017,64.939875 97.1427735,121.376938 C96.917558,157.260797 132.618486,204.759953 120.439746,208.223641 L108.261006,211.687328 L108.261006,211.687328 Z" id="Stroke-17" stroke="#514A3D" stroke-width="2" stroke-linecap="round" sketch:type="MSShapeGroup"></path>
                <path d="M7.73080663,106.454359 C9.37430939,139.680734 109.140486,210.808609 109.140486,210.808609 M20.5581105,97.517875 C37.1499337,152.0155 116.125017,212.103937 114.460133,209.924203 M33.8315691,91.0668281 C67.5098343,123.812609 118.144829,208.876281 118.144829,208.876281 M57.2083646,85.5954531 C88.8240552,123.959062 120.439746,208.223641 120.439746,208.223641 M15.2099558,146.909547 C15.2099558,146.909547 43.1167182,96.1386562 95.9112155,108.951172 M37.6659337,168.667078 C37.6659337,168.667078 49.8689061,133.037734 99.1511823,137.958844" id="Stroke-18" stroke="#514A3D" stroke-width="2" stroke-linecap="round" stroke-linejoin="round" sketch:type="MSShapeGroup"></path>
                <path d="M68.4092707,191.943172 C68.4092707,191.943172 78.6394696,162.322672 109.140486,168.667078" id="Stroke-19" stroke="#514A3D" stroke-width="2" stroke-linecap="round" sketch:type="MSShapeGroup"></path>
                <path d="M219.728409,243.051047 C197.849724,258.539531 129.00221,256.128031 109.42842,243.051047 C55.4009392,206.951063 108.700033,64.4407969 114.045337,46.0161406 C133.452354,-20.8802344 217.597414,-11.5541562 227.193304,52.8013281 C232.869304,97.5889688 266.558972,209.895766 219.728409,243.051047 L219.728409,243.051047 Z" id="Fill-20" fill="#997966" sketch:type="MSShapeGroup"></path>
                <path d="M219.728409,243.051047 C197.849724,258.539531 129.00221,256.128031 109.42842,243.051047 C55.4009392,206.951063 108.700033,64.4407969 114.045337,46.0161406 C133.452354,-20.8802344 217.597414,-11.5541562 227.193304,52.8013281 C232.869304,97.5889688 266.558972,209.895766 219.728409,243.051047 L219.728409,243.051047 Z" id="Stroke-21" stroke="#1A1918" stroke-width="2" sketch:type="MSShapeGroup"></path>
                <path d="M121.374818,123.313531 C116.371613,142.142 107.716497,237.771625 123.738155,245.330313 C141.423271,253.673875 183.336155,250.911172 201.487381,246.637016 C213.108785,243.899906 206.459227,141.351438 204.792917,129.775953 C199.373492,92.1119063 129.962939,91 121.374818,123.313531" id="Fill-22" fill="#E4C099" sketch:type="MSShapeGroup"></path>
                <path d="M204.668906,47.4351719 C209.804674,47.4351719 209.813227,39.4726719 204.668906,39.4726719 C199.533138,39.4726719 199.524586,47.4351719 204.668906,47.4351719" id="Fill-23" fill="#1A1918" sketch:type="MSShapeGroup"></path>
                <path d="M136.650983,47.4351719 C141.786751,47.4351719 141.795304,39.4726719 136.650983,39.4726719 C131.515215,39.4726719 131.506663,47.4351719 136.650983,47.4351719" id="Fill-24" fill="#1A1918" sketch:type="MSShapeGroup"></path>
                <path d="M144.309735,49.75425 C144.308309,49.75425 158.009392,40.2717656 168.906685,40.3002031 C181.346276,40.3314844 194.703834,49.879375 194.703834,49.879375 C184.657514,53.3686562 211.783149,82.0322344 206.181271,85.6125156 C196.458519,97.1624063 147.04653,99.4345625 130.423348,84.2261875 C126.078685,80.250625 154.150796,51.0296719 144.309735,49.75425 L144.309735,49.75425 Z" id="Fill-25" fill="#221F15" sketch:type="MSShapeGroup"></path>
                <path d="M144.309735,49.75425 C144.308309,49.75425 158.009392,40.2717656 168.906685,40.3002031 C181.346276,40.3314844 194.703834,49.879375 194.703834,49.879375 C184.657514,53.3686562 211.783149,82.0322344 206.181271,85.6125156 C196.458519,97.1624063 147.04653,99.4345625 130.423348,84.2261875 C126.078685,80.250625 154.150796,51.0296719 144.309735,49.75425 L144.309735,49.75425 Z" id="Stroke-26" stroke="#514A3D" stroke-linecap="round" sketch:type="MSShapeGroup"></path>
                <path d="M155.916884,85.4760156 L159.543138,84.2617344" id="Fill-27" fill="#221E15" sketch:type="MSShapeGroup"></path>
                <path d="M155.916884,85.4760156 L159.543138,84.2617344" id="Stroke-28" stroke="#7A634B" stroke-linecap="round" sketch:type="MSShapeGroup"></path>
                <path d="M167.675127,84.345625 L170.634287,85.9338594" id="Fill-29" fill="#221E15" sketch:type="MSShapeGroup"></path>
                <path d="M167.675127,84.345625 L170.634287,85.9338594" id="Stroke-30" stroke="#7A634B" stroke-linecap="round" sketch:type="MSShapeGroup"></path>
                <path d="M153.690387,50.4310625 C160.73621,47.194875 180.476773,48.0650625 185.628221,50.4310625" id="Stroke-31" stroke="#514A3D" stroke-linecap="round" sketch:type="MSShapeGroup"></path>
                <path d="M105.222022,235.060109 C105.222022,235.060109 86.5890055,249.017234 88.1241768,253.181906 C89.6593481,257.348 102.299923,250.262797 102.299923,253.673875 C102.299923,255.151203 101.963525,263.962563 105.190663,266.020016 C108.416376,268.077469 111.624983,262.678609 114.247746,256.656969 C114.247746,256.656969 118.39,263.998109 125.718055,262.401344 C129.522486,261.572391 122.900011,246.127984 121.098287,245.048781 C119.297989,243.969578 105.222022,235.060109 105.222022,235.060109" id="Fill-32" fill="#221E15" sketch:type="MSShapeGroup"></path>
                <path d="M105.222022,236.0085 C100.958608,240.295453 91.0391492,254.522734 91.0391492,254.522734 C96.3701989,253.941188 102.298497,255.9375 103.359006,263.37675 C103.464486,264.113281 108.554641,265.886359 109.140486,265.10575 C113.653348,259.105437 118.144829,262.60325 123.585635,262.189484 C123.585635,262.189484 124.028939,254.370594 121.007061,248.646125 L105.222022,236.0085" id="Fill-33" fill="#997966" sketch:type="MSShapeGroup"></path>
                <path d="M105.222022,235.060109 C105.222022,235.060109 86.5890055,249.017234 88.1241768,253.181906 C89.6593481,257.348 102.299923,250.262797 102.299923,253.673875 C102.299923,255.151203 101.963525,263.962563 105.190663,266.020016 C108.416376,268.077469 111.624983,262.678609 114.247746,256.656969 C114.247746,256.656969 118.39,263.998109 125.718055,262.401344 C129.522486,261.572391 122.900011,246.127984 121.098287,245.048781 C119.297989,243.969578 105.222022,235.060109 105.222022,235.060109" id="Fill-34" fill="#221E15" sketch:type="MSShapeGroup"></path>
                <path d="M190.895127,249.647125 C190.895127,249.647125 183.019713,265.695828 186.527657,268.425828 C190.035602,271.15725 197.025834,258.484078 198.830409,261.381859 C199.611536,262.635953 203.986133,270.298438 207.814796,270.348203 C211.644884,270.397969 211.515171,264.123234 210.555867,257.626688 C210.555867,257.626688 217.95947,261.683297 223.338983,256.469281 C226.13137,253.763453 212.33621,244.128828 210.235149,244.160109 C208.134088,244.191391 190.895127,249.647125 190.895127,249.647125" id="Fill-35" fill="#221E15" sketch:type="MSShapeGroup"></path>
                <path d="M190.555878,250.0225 C189.61653,254.110391 188.042873,266.186375 188.551746,268.637687 C188.551746,268.637687 197.637337,261.046297 204.668906,268.910687 C205.395867,269.722578 210.35916,269.082734 210.746873,267.595453 C212.564276,260.616891 214.256243,260.137719 220.922906,258.176953 C220.922906,258.176953 215.780011,247.977844 209.897326,244.535484 L190.555878,250.0225" id="Fill-36" fill="#997966" sketch:type="MSShapeGroup"></path>
                <path d="M190.895127,249.647125 C190.895127,249.647125 183.019713,265.695828 186.527657,268.425828 C190.035602,271.15725 197.025834,258.484078 198.830409,261.381859 C199.611536,262.635953 203.986133,270.298438 207.814796,270.348203 C211.644884,270.397969 211.515171,264.123234 210.555867,257.626688 C210.555867,257.626688 217.95947,261.683297 223.338983,256.469281 C226.13137,253.763453 212.33621,244.128828 210.235149,244.160109 C208.134088,244.191391 190.895127,249.647125 190.895127,249.647125" id="Fill-37" fill="#221E15" sketch:type="MSShapeGroup"></path>
                <path d="M95.0787735,119.215688 C73.4766188,82.1019062 63.5029945,44.692375 63.5029945,40.3002031 C63.5029945,13.2689375 105.400199,94.0172188 105.400199,94.0172188" id="Fill-40" fill="#997966" sketch:type="MSShapeGroup"></path>
                <path d="M95.0787735,119.215688 C73.4766188,82.1019062 63.5029945,44.692375 63.5029945,40.3002031 C63.5029945,13.2689375 105.400199,94.0172188 105.400199,94.0172188" id="Stroke-41" stroke="#1A1918" stroke-width="2" sketch:type="MSShapeGroup"></path>
            </g>
            <path d="M55.8987576,99.9973968 L30.5,99.9973968 L41.5282027,36 L158.471797,36 L148.821332,92.0022933 L169.5,92.0022933 L158.471797,156 L46.2482858,156 L55.8987576,99.9973968 L55.8987576,99.9973968 Z M61.6412633,59.4938098 C61.6412633,57.3350481 61.140545,55.6557014 60.1412789,54.4566993 C59.1410826,53.2573872 57.8017001,52.6574213 56.1218912,52.6574213 C55.8013075,52.6574213 55.4413485,52.6977083 55.0420141,52.7773525 L51.922369,70.5876009 C52.0817307,70.6278879 52.2522539,70.6579482 52.4323885,70.6774718 C52.612523,70.6979252 52.8419543,70.7075321 53.1222325,70.7075321 C54.4814577,70.7075321 55.6918626,70.3985621 56.7518971,69.7781428 C57.8113114,69.1589631 58.7017527,68.3389683 59.4216708,67.3193982 C60.1415889,66.3001379 60.6909838,65.1110526 61.0714056,63.7512125 C61.4508973,62.392612 61.6412633,60.9732711 61.6412633,59.4938098 Z M68.0005398,59.0738956 C68.0005398,61.1933 67.6601134,63.2817144 66.9805008,65.3403784 C66.2999581,67.3999721 65.3006919,69.2382974 63.9808421,70.8575236 C62.6609922,72.4767498 61.0413315,73.7863861 59.1212399,74.785193 C57.2014583,75.7852395 55.0013985,76.284488 52.5219907,76.284488 L50.90202,76.1645568 L48.2623203,91.3360088 L42.0230301,91.3360088 L49.7021565,47.6801215 C50.4614499,47.4802361 51.3416599,47.3110309 52.3418561,47.1703364 C53.3411223,47.0305716 54.3611613,46.9602244 55.4016631,46.9602244 C57.5614174,46.9602244 59.4306621,47.2806607 61.0112574,47.9199839 C62.5906126,48.559617 63.9002311,49.4291957 64.9407329,50.5284101 C65.9803045,51.6285542 66.7498294,52.9177371 67.2505476,54.3959589 C67.7503357,55.8760401 68.0005398,57.4351457 68.0005398,59.0738956 Z M90.3775289,53.1969568 L79.5186092,53.1969568 L77.2987067,65.8498536 L87.0179111,65.8498536 L85.9978721,71.5467406 L76.2786678,71.5467406 L73.8187926,85.5191905 L84.6777122,85.5191905 L83.6576732,91.3360088 L66.6193016,91.3360088 L74.3585761,47.3804484 L91.3969478,47.3804484 L90.3775289,53.1969568 Z M110.175276,91.3360088 L107.11609,91.45594 L99.3166669,64.8907139 L94.6371993,91.3360088 L88.5780437,91.3360088 L96.3173182,47.3804484 L99.4369633,47.2605172 L107.296224,73.3460186 L111.915854,47.3804484 L117.975009,47.3804484 L110.175276,91.3360088 Z M137.712609,91.3360088 L134.653422,91.45594 L126.853999,64.8907139 L122.174221,91.3360088 L116.115376,91.3360088 L123.85434,47.3804484 L126.973675,47.2605172 L134.833246,73.3460186 L139.452876,47.3804484 L145.512031,47.3804484 L137.712609,91.3360088 Z M73.9502505,116.754916 L68.0107712,132.526024 L74.1902232,132.526024 L73.9502505,116.754916 L73.9502505,116.754916 Z M74.6100204,147.337992 L74.3102095,138.042549 L65.8510169,138.042549 L62.1912782,147.337992 L56.0719744,147.337992 L74.1902232,103.082139 L78.6297181,103.082139 L80.7894724,147.337992 L74.6100204,147.337992 L74.6100204,147.337992 Z M103.767013,115.495793 C103.767013,113.336722 103.265985,111.657685 102.266719,110.458683 C101.266523,109.259061 99.9271401,108.659095 98.2473312,108.659095 C97.9267475,108.659095 97.5667885,108.699382 97.167454,108.779026 L94.047809,126.588964 C94.2071707,126.629561 94.3776939,126.659622 94.5578285,126.679145 C94.737963,126.699599 94.9673943,126.709206 95.2476725,126.709206 C96.6068977,126.709206 97.8173026,126.400236 98.877337,125.779816 C99.9367514,125.160637 100.827193,124.340332 101.547111,123.321072 C102.267029,122.301811 102.816424,121.112726 103.197156,119.752886 C103.576337,118.394595 103.767013,116.975255 103.767013,115.495793 L103.767013,115.495793 Z M110.12598,115.075879 C110.12598,117.195283 109.785553,119.283698 109.105941,121.342672 C108.425708,123.401955 107.426132,125.240281 106.105972,126.859507 C104.786742,128.478733 103.166772,129.788679 101.24668,130.787176 C99.3268983,131.787223 97.1268385,132.286471 94.6474307,132.286471 L93.0274599,132.16654 L90.3877602,147.337992 L84.1484701,147.337992 L91.8275964,103.682415 C92.5868899,103.482529 93.4670998,103.313324 94.4672961,103.17263 C95.4665623,103.033175 96.4866013,102.962518 97.527103,102.962518 C99.6868573,102.962518 101.556102,103.282954 103.136697,103.922277 C104.716363,104.56191 106.025671,105.431489 107.066483,106.531013 C108.106365,107.630847 108.875579,108.92003 109.375988,110.398252 C109.875776,111.878023 110.12598,113.437129 110.12598,115.075879 L110.12598,115.075879 Z M128.363595,115.495793 C128.363595,113.336722 127.862877,111.657685 126.86361,110.458683 C125.863104,109.259061 124.523722,108.659095 122.843913,108.659095 C122.523329,108.659095 122.16337,108.699382 121.764036,108.779026 L118.64439,126.588964 C118.804062,126.629561 118.974275,126.659622 119.15441,126.679145 C119.334234,126.699599 119.563976,126.709206 119.844254,126.709206 C121.203789,126.709206 122.413884,126.400236 123.473919,125.779816 C124.533333,125.160637 125.423774,124.340332 126.143692,123.321072 C126.86361,122.301811 127.413005,121.112726 127.793427,119.752886 C128.173229,118.394595 128.363595,116.975255 128.363595,115.495793 L128.363595,115.495793 Z M134.722871,115.075879 C134.722871,117.195283 134.382445,119.283698 133.702832,121.342672 C133.0226,123.401955 132.023023,125.240281 130.703174,126.859507 C129.383634,128.478733 127.763663,129.788679 125.843571,130.787176 C123.92379,131.787223 121.72373,132.286471 119.244012,132.286471 L117.624351,132.16654 L114.984342,147.337992 L108.745362,147.337992 L116.424798,103.682415 C117.183781,103.482529 118.063991,103.313324 119.064188,103.17263 C120.063764,103.033175 121.083803,102.962518 122.123995,102.962518 C124.284059,102.962518 126.152994,103.282954 127.733589,103.922277 C129.313254,104.56191 130.622563,105.431489 131.663374,106.531013 C132.702946,107.630847 133.472471,108.92003 133.972879,110.398252 C134.472667,111.878023 134.722871,113.437129 134.722871,115.075879 Z M155.120241,111.417822 C154.119734,110.458683 153.110547,109.708725 152.090508,109.16888 C151.070779,108.629344 150.040819,108.359422 149.000937,108.359422 C148.161032,108.359422 147.420341,108.509723 146.781034,108.809086 C146.141107,109.109069 145.620546,109.519067 145.221212,110.038768 C144.821257,110.55878 144.521136,111.128686 144.321469,111.747866 C144.121182,112.368285 144.021658,113.017525 144.021658,113.696515 C144.021658,115.255621 144.461298,116.814417 145.341508,118.374452 C146.220788,119.933248 147.220984,121.513117 148.341167,123.111889 C149.661017,124.950834 150.86088,126.910021 151.940757,128.988518 C153.020635,131.067326 153.560728,133.346019 153.560728,135.824597 C153.560728,137.623565 153.28045,139.272541 152.720824,140.771836 C152.159957,142.271131 151.390742,143.551017 150.411009,144.609635 C149.430655,145.669492 148.260556,146.498784 146.901641,147.09813 C145.541175,147.698096 144.041501,147.997769 142.401998,147.997769 C140.161322,147.997769 138.172091,147.548104 136.432444,146.648465 C134.692797,145.748826 133.142276,144.720269 131.783051,143.560314 L134.362602,138.1631 C135.642147,139.362412 136.901848,140.351922 138.142017,141.13163 C139.381256,141.911648 140.760944,142.300882 142.281701,142.300882 C143.801218,142.300882 145.041387,141.721369 146.001278,140.561724 C146.961479,139.403009 147.441424,137.963525 147.441424,136.244511 C147.441424,135.365635 147.300665,134.51589 147.021627,133.695585 C146.741349,132.87652 146.38139,132.056836 145.94175,131.236841 C145.50118,130.417776 145.011933,129.617615 144.47215,128.838217 C143.932056,128.058819 143.381731,127.269504 142.822415,126.469343 C142.222173,125.550181 141.631853,124.630708 141.052384,123.710926 C140.472295,122.791453 139.942743,121.84285 139.462487,120.862637 C138.982232,119.883974 138.60212,118.834033 138.322772,117.714675 C138.042494,116.595937 137.902975,115.416459 137.902975,114.17686 C137.902975,112.458466 138.182013,110.89905 138.742879,109.498923 C139.302505,108.100036 140.07203,106.900724 141.052384,105.900987 C142.032117,104.90218 143.191365,104.122782 144.532298,103.562793 C145.87168,103.002805 147.341901,102.723275 148.942029,102.723275 C150.941181,102.723275 152.661606,103.092985 154.101442,103.832096 C155.541588,104.572137 156.720679,105.322094 157.641194,106.081349 L155.120241,111.417822 Z" id="PennApps-Logo-Vector-2" fill="#062946" sketch:type="MSShapeGroup"></path>
            <rect id="Back-2" fill="#062946" sketch:type="MSShapeGroup" x="0" y="600" width="1200" height="300"></rect>
            <path d="M1115.26907,580.976281 C1129.64723,586.240062 1143.88712,637.036547 1154.14155,621.710156 C1157.37866,616.872937 1133.51438,559.026797 1133.51438,559.026797" id="Fill-38" fill="#997966" sketch:type="MSShapeGroup"></path>
            <path d="M1115.26907,580.976281 C1129.64723,586.240062 1143.88712,637.036547 1154.14155,621.710156 C1157.37866,616.872937 1133.51438,559.026797 1133.51438,559.026797" id="Stroke-39" stroke="#1A1918" stroke-width="2" sketch:type="MSShapeGroup"></path>
            <g id="Making-History-2-+-PENNAPPS-+-XII-4" sketch:type="MSLayerGroup" transform="translate(235.000000, 682.000000)">
                <g id="PENNAPPS-+-XII-4" fill="#FFFFFF" sketch:type="MSShapeGroup">
                    <path d="M17.6521512,52.202086 L30.9353325,52.202086 C43.8891786,52.202086 57.3919166,41.8829205 57.3919166,26.5139505 C57.3919166,16.0850065 50.9149935,1.15514993 29.6179922,1.15514993 L1.95384615,1.15514993 C0.856062581,1.15514993 -0.0221642764,2.03337679 -0.0221642764,3.13116037 L-0.0221642764,76.0239896 C-0.0221642764,77.1217731 0.856062581,78 1.95384615,78 L15.6761408,78 C16.7739244,78 17.6521512,77.1217731 17.6521512,76.0239896 L17.6521512,52.202086 Z M30.496219,35.7353325 L17.6521512,35.7353325 L17.6521512,17.4023468 L30.166884,17.4023468 C38.0709257,17.4023468 39.8273794,23.3303781 39.8273794,26.5139505 C39.8273794,29.3681877 38.0709257,35.5157757 30.496219,35.7353325 L30.496219,35.7353325 Z M118.318905,48.2500652 C119.416688,48.2500652 120.294915,47.3718383 120.294915,46.2740548 L120.294915,33.8691004 C120.294915,32.7713168 119.416688,31.89309 118.318905,31.89309 L92.5209909,31.89309 L92.5209909,17.5121252 L126.113168,17.5121252 C127.210952,17.5121252 128.089179,16.6338983 128.089179,15.5361147 L128.089179,3.13116037 C128.089179,2.03337679 127.210952,1.15514993 126.113168,1.15514993 L76.9324641,1.15514993 C75.8346806,1.15514993 74.9564537,2.03337679 74.9564537,3.13116037 L74.9564537,76.0239896 C74.9564537,77.1217731 75.8346806,78 76.9324641,78 L126.113168,78 C127.210952,78 128.089179,77.1217731 128.089179,76.0239896 L128.089179,63.6190352 C128.089179,62.5212516 127.210952,61.6430248 126.113168,61.6430248 L92.5209909,61.6430248 L92.5209909,48.2500652 L118.318905,48.2500652 Z M161.352021,78 C162.449804,78 163.328031,77.1217731 163.328031,76.0239896 L163.328031,37.7113429 L205.48292,77.5608866 C206.141591,78.2195567 207.019817,78.5488918 207.898044,78.5488918 C208.666493,78.5488918 209.325163,77.8902216 209.325163,77.1217731 L209.325163,3.13116037 C209.325163,2.03337679 208.446936,1.15514993 207.349153,1.15514993 L193.736636,1.15514993 C192.638853,1.15514993 191.760626,2.03337679 191.760626,3.13116037 L191.760626,40.1264668 L150.04485,1.15514993 C149.276402,0.496479791 148.288396,0.0573663625 147.190613,0.0573663625 C146.312386,0.0573663625 145.653716,0.825814863 145.653716,1.70404172 L145.653716,76.0239896 C145.653716,77.1217731 146.531943,78 147.629726,78 L161.352021,78 Z M246.97914,78 C248.076923,78 248.95515,77.1217731 248.95515,76.0239896 L248.95515,37.7113429 L291.110039,77.5608866 C291.768709,78.2195567 292.646936,78.5488918 293.525163,78.5488918 C294.293611,78.5488918 294.952282,77.8902216 294.952282,77.1217731 L294.952282,3.13116037 C294.952282,2.03337679 294.074055,1.15514993 292.976271,1.15514993 L279.363755,1.15514993 C278.265971,1.15514993 277.387744,2.03337679 277.387744,3.13116037 L277.387744,40.1264668 L235.671969,1.15514993 C234.90352,0.496479791 233.915515,0.0573663625 232.817731,0.0573663625 C231.939505,0.0573663625 231.280834,0.825814863 231.280834,1.70404172 L231.280834,76.0239896 C231.280834,77.1217731 232.159061,78 233.256845,78 L246.97914,78 Z M348.963233,2.03337679 C348.52412,0.93559322 347.426336,0.276923077 346.328553,0.276923077 C345.230769,0.276923077 344.132986,0.93559322 343.693872,2.03337679 L309.991917,76.2435463 C309.662581,77.0119948 310.321252,78 311.199478,78 L326.897784,78 C328.105346,78 329.203129,77.2315515 329.642243,76.1337679 L335.13116,62.4114733 L357.745502,62.4114733 L363.23442,76.1337679 C363.673533,77.2315515 364.771317,78 365.978879,78 L381.677184,78 C382.555411,78 383.214081,77.0119948 382.774967,76.2435463 L348.963233,2.03337679 Z M346.438331,34.4179922 L352.146806,48.6891786 L340.620078,48.6891786 L346.438331,34.4179922 Z M415.598696,52.202086 L428.881877,52.202086 C441.835724,52.202086 455.338462,41.8829205 455.338462,26.5139505 C455.338462,16.0850065 448.861538,1.15514993 427.564537,1.15514993 L399.900391,1.15514993 C398.802608,1.15514993 397.924381,2.03337679 397.924381,3.13116037 L397.924381,76.0239896 C397.924381,77.1217731 398.802608,78 399.900391,78 L413.622686,78 C414.720469,78 415.598696,77.1217731 415.598696,76.0239896 L415.598696,52.202086 Z M428.442764,35.7353325 L415.598696,35.7353325 L415.598696,17.4023468 L428.113429,17.4023468 C436.017471,17.4023468 437.773924,23.3303781 437.773924,26.5139505 C437.773924,29.3681877 436.017471,35.5157757 428.442764,35.7353325 L428.442764,35.7353325 Z M490.577314,52.202086 L503.860495,52.202086 C516.814342,52.202086 530.31708,41.8829205 530.31708,26.5139505 C530.31708,16.0850065 523.840156,1.15514993 502.543155,1.15514993 L474.879009,1.15514993 C473.781226,1.15514993 472.902999,2.03337679 472.902999,3.13116037 L472.902999,76.0239896 C472.902999,77.1217731 473.781226,78 474.879009,78 L488.601304,78 C489.699087,78 490.577314,77.1217731 490.577314,76.0239896 L490.577314,52.202086 Z M503.421382,35.7353325 L490.577314,35.7353325 L490.577314,17.4023468 L503.092047,17.4023468 C510.996089,17.4023468 512.752542,23.3303781 512.752542,26.5139505 C512.752542,29.3681877 510.996089,35.5157757 503.421382,35.7353325 L503.421382,35.7353325 Z M579.936897,32.0028683 C571.374185,28.9290743 563.6897,26.8432855 563.250587,22.1228162 C563.140808,17.9512386 567.422164,16.5241199 572.032855,16.5241199 C578.180443,16.5241199 587.292047,19.8174707 592.122295,21.5739244 C593.220078,22.0130378 594.317862,21.5739244 594.756975,20.5859192 L599.697001,9.27874837 C600.136115,8.1809648 599.697001,7.08318123 598.708996,6.53428944 C585.864928,0.606258149 575.765319,-0.0524119948 570.935072,-0.0524119948 C556.224772,-0.0524119948 545.576271,8.51029987 545.576271,22.8912647 C545.576271,38.6993481 559.518123,42.980704 570.605737,46.6033898 C577.851108,48.9087353 583.77914,50.9945241 583.77914,55.8247718 C583.77914,59.6670143 578.948892,62.4114733 573.240417,62.4114733 C566.873272,62.4114733 560.067014,59.8865711 553.041199,56.7029987 C552.053194,56.2638853 550.845632,56.5932203 550.406519,57.5812256 L544.368709,68.778618 C543.929596,69.7666232 544.258931,70.9741851 545.246936,71.4132986 C554.578096,76.2435463 563.250587,78.8782269 573.899087,78.8782269 C590.695176,78.8782269 602.331682,68.4492829 602.331682,55.0563233 C602.331682,41.0046936 590.585398,35.7353325 579.936897,32.0028683 L579.936897,32.0028683 Z" id="PENNAPPS"></path>
                    <path d="M672.274154,76.6826597 C672.823045,77.5608866 673.701272,78 674.689277,78 L679.409747,78 C680.068417,78 680.50753,77.2315515 680.068417,76.6826597 L656.685627,39.4677966 L680.068417,2.36271186 C680.50753,1.81382008 680.068417,1.04537158 679.409747,1.04537158 L674.579499,1.04537158 C673.591494,1.04537158 672.713267,1.59426336 672.164375,2.36271186 L652.733606,33.2104302 L633.193058,2.36271186 C632.753945,1.59426336 631.875718,1.04537158 630.887713,1.04537158 L626.057465,1.04537158 C625.398795,1.04537158 624.959682,1.81382008 625.289017,2.36271186 L648.781585,39.4677966 L625.289017,76.6826597 C624.959682,77.2315515 625.398795,78 626.057465,78 L630.777935,78 C631.76594,78 632.644167,77.5608866 633.08328,76.6826597 L652.733606,45.725163 L672.274154,76.6826597 Z M702.133867,2.69204694 C702.133867,1.81382008 701.475197,1.15514993 700.59697,1.15514993 L696.754727,1.15514993 C695.8765,1.15514993 695.21783,1.81382008 695.21783,2.69204694 L695.21783,76.463103 C695.21783,77.3413299 695.8765,78 696.754727,78 L700.59697,78 C701.475197,78 702.133867,77.3413299 702.133867,76.463103 L702.133867,2.69204694 Z M731.005575,2.69204694 C731.005575,1.81382008 730.346905,1.15514993 729.468678,1.15514993 L725.626435,1.15514993 C724.748208,1.15514993 724.089538,1.81382008 724.089538,2.69204694 L724.089538,76.463103 C724.089538,77.3413299 724.748208,78 725.626435,78 L729.468678,78 C730.346905,78 731.005575,77.3413299 731.005575,76.463103 L731.005575,2.69204694 Z" id="XII"></path>
                </g>
                <path d="M179.815328,148.417966 C180.007532,148.866441 180.456006,149.18678 180.968549,149.18678 C181.481091,149.18678 181.929566,148.866441 182.121769,148.417966 L194.679057,119.267119 L203.968888,147.71322 C204.161091,148.225763 204.673633,148.610169 205.250244,148.610169 L210.439735,148.610169 C210.88821,148.610169 211.272617,148.161695 211.080413,147.71322 L196.408888,103.890847 C196.280752,103.506441 195.960413,103.250169 195.511939,103.250169 C195.127532,103.250169 194.743125,103.506441 194.614989,103.890847 L180.968549,135.924746 L167.322108,103.890847 C167.193972,103.506441 166.809566,103.250169 166.361091,103.250169 C165.976684,103.250169 165.656345,103.506441 165.52821,103.890847 L150.856684,147.71322 C150.664481,148.161695 151.048888,148.610169 151.497362,148.610169 L156.686854,148.610169 C157.263464,148.610169 157.776006,148.225763 157.96821,147.71322 L167.25804,119.267119 L179.815328,148.417966 Z M229.467871,116.127797 C226.328549,116.32 223.189227,117.152881 220.113972,118.626441 C219.665498,118.882712 219.409227,119.459322 219.665498,119.971864 L220.75465,122.598644 C220.946854,123.111186 221.523464,123.30339 222.036006,123.111186 C224.854989,122.086102 228.31465,121.445424 229.852278,121.445424 C234.14482,121.445424 236.130922,122.470508 236.130922,129.005424 L236.130922,129.710169 C228.699057,128.877288 217.166854,128.556949 217.166854,139.512542 C217.166854,142.459661 218.704481,149.18678 228.442786,149.18678 C231.325837,149.18678 235.041769,147.905424 237.668549,145.278644 L238.437362,147.71322 C238.565498,148.225763 239.07804,148.610169 239.65465,148.610169 L241.576684,148.610169 C242.089227,148.610169 242.537701,148.161695 242.537701,147.649153 L242.537701,129.453898 C242.537701,122.72678 241.640752,115.423051 229.467871,116.127797 L229.467871,116.127797 Z M236.130922,139.57661 C235.041769,141.498644 232.286854,144.125424 228.634989,144.125424 C225.687871,144.125424 223.125159,142.395593 223.125159,139 C223.125159,133.041695 232.9916,134.258983 236.130922,134.64339 L236.130922,139.57661 Z M259.195328,134.323051 L272.52143,147.905424 C272.969905,148.353898 273.546515,148.610169 274.187193,148.610169 L280.722108,148.610169 C280.850244,148.610169 280.978379,148.546102 281.042447,148.417966 C281.106515,148.225763 281.042447,148.097627 280.914311,147.969492 L264.641091,131.952542 L279.825159,117.024746 C279.889227,116.960678 279.953294,116.832542 279.889227,116.768475 C279.825159,116.640339 279.761091,116.576271 279.632955,116.576271 L273.226176,116.576271 C272.585498,116.576271 272.008888,116.832542 271.560413,117.281017 L259.195328,129.966441 L259.195328,104.723729 C259.195328,104.211186 258.746854,103.762712 258.234311,103.762712 L253.749566,103.762712 C253.237023,103.762712 252.788549,104.211186 252.788549,104.723729 L252.788549,147.649153 C252.788549,148.161695 253.237023,148.610169 253.749566,148.610169 L258.234311,148.610169 C258.746854,148.610169 259.195328,148.161695 259.195328,147.649153 L259.195328,134.323051 Z M288.153972,106.837966 C288.153972,109.016271 289.755667,110.617966 291.933972,110.617966 C294.04821,110.617966 295.77804,109.016271 295.77804,106.837966 C295.77804,104.723729 294.04821,102.993898 291.933972,102.993898 C289.755667,102.993898 288.153972,104.723729 288.153972,106.837966 L288.153972,106.837966 Z M295.137362,117.537288 C295.137362,117.024746 294.688888,116.576271 294.176345,116.576271 L289.6916,116.576271 C289.179057,116.576271 288.730583,117.024746 288.730583,117.537288 L288.730583,147.71322 C288.730583,148.225763 289.179057,148.674237 289.6916,148.674237 L294.176345,148.674237 C294.688888,148.674237 295.137362,148.225763 295.137362,147.71322 L295.137362,117.537288 Z M312.435667,125.673898 C313.652955,123.623729 316.536006,121.445424 320.316006,121.445424 C328.324481,121.445424 327.4916,129.646102 327.683803,132.080678 L327.683803,147.649153 C327.683803,148.161695 328.132278,148.610169 328.64482,148.610169 L333.193633,148.610169 C333.706176,148.610169 334.15465,148.161695 334.15465,147.649153 L334.15465,132.080678 C334.15465,124.584746 332.552955,116.063729 320.636345,116.063729 C317.176684,116.063729 313.717023,117.216949 310.962108,119.843729 L310.193294,117.47322 C310.001091,116.960678 309.488549,116.576271 308.911939,116.576271 L306.989905,116.576271 C306.477362,116.576271 306.028888,117.024746 306.028888,117.537288 L306.028888,147.649153 C306.028888,148.161695 306.477362,148.610169 306.989905,148.610169 L311.47465,148.610169 C311.987193,148.610169 312.435667,148.161695 312.435667,147.649153 L312.435667,125.673898 Z M357.859735,144.381695 C356.514311,144.381695 354.336006,144.317627 352.926515,144.317627 C350.299735,144.317627 347.993294,143.420678 347.993294,141.370508 C347.993294,139.896949 348.954311,138.551525 351.068549,138.807797 C352.413972,139.320339 354.015667,139.57661 355.873633,139.57661 C364.971261,139.57661 367.854311,132.721356 367.854311,127.788136 C367.854311,125.866102 367.277701,123.559661 366.188549,121.509492 L369.968549,117.537288 C370.288888,117.152881 370.288888,116.512203 369.904481,116.191864 L367.790244,114.077627 C367.405837,113.69322 366.765159,113.69322 366.380752,114.013559 L362.408549,117.665424 C360.742786,116.704407 358.628549,116.063729 355.873633,116.063729 C346.711939,116.063729 343.957023,122.983051 343.957023,127.788136 C343.957023,130.222712 344.725837,133.105763 346.455667,135.412203 C343.957023,136.052881 342.547532,138.359322 342.675667,141.434576 C342.739735,143.35661 344.021091,145.150508 346.263464,145.98339 C342.739735,147.456949 341.906854,150.468136 341.842786,152.646441 C341.842786,156.554576 344.982108,162.25661 356.322108,162.25661 C367.02143,162.25661 369.712278,155.785763 369.840413,153.158983 C370.032617,148.866441 368.17465,144.509831 357.859735,144.381695 L357.859735,144.381695 Z M355.873633,121.381356 C360.678718,121.381356 361.447532,126.186441 361.447532,127.788136 C361.447532,129.389831 360.678718,134.194915 355.873633,134.194915 C351.068549,134.194915 350.299735,129.389831 350.299735,127.788136 C350.299735,126.186441 351.068549,121.381356 355.873633,121.381356 L355.873633,121.381356 Z M364.010244,152.902712 C364.010244,153.158983 363.689905,156.810847 355.873633,156.810847 C348.826176,156.682712 347.608888,153.799661 347.608888,152.902712 C347.608888,150.91661 348.826176,149.76339 355.873633,149.76339 C362.985159,149.76339 364.202447,151.044746 364.010244,152.902712 L364.010244,152.902712 Z M406.038718,129.389831 L429.167193,129.389831 L429.167193,147.649153 C429.167193,148.161695 429.615667,148.610169 430.12821,148.610169 L434.805159,148.610169 C435.317701,148.610169 435.766176,148.161695 435.766176,147.649153 L435.766176,104.723729 C435.766176,104.211186 435.317701,103.762712 434.805159,103.762712 L430.12821,103.762712 C429.615667,103.762712 429.167193,104.211186 429.167193,104.723729 L429.167193,123.623729 L406.038718,123.623729 L406.038718,104.723729 C406.038718,104.211186 405.590244,103.762712 405.077701,103.762712 L400.400752,103.762712 C399.88821,103.762712 399.439735,104.211186 399.439735,104.723729 L399.439735,147.649153 C399.439735,148.161695 399.88821,148.610169 400.400752,148.610169 L405.077701,148.610169 C405.590244,148.610169 406.038718,148.161695 406.038718,147.649153 L406.038718,129.389831 Z M447.298379,106.837966 C447.298379,109.016271 448.900074,110.617966 451.078379,110.617966 C453.192617,110.617966 454.922447,109.016271 454.922447,106.837966 C454.922447,104.723729 453.192617,102.993898 451.078379,102.993898 C448.900074,102.993898 447.298379,104.723729 447.298379,106.837966 L447.298379,106.837966 Z M454.281769,117.537288 C454.281769,117.024746 453.833294,116.576271 453.320752,116.576271 L448.836006,116.576271 C448.323464,116.576271 447.874989,117.024746 447.874989,117.537288 L447.874989,147.71322 C447.874989,148.225763 448.323464,148.674237 448.836006,148.674237 L453.320752,148.674237 C453.833294,148.674237 454.281769,148.225763 454.281769,147.71322 L454.281769,117.537288 Z M470.490922,124.969153 C470.619057,122.342373 473.117701,121.637627 475.936684,121.637627 C478.050922,121.637627 480.933972,122.534576 483.176345,123.431525 C483.688888,123.623729 484.265498,123.431525 484.457701,122.918983 L485.931261,119.843729 C486.123464,119.331186 485.931261,118.754576 485.418718,118.498305 C480.741769,116.32 476.513294,116.063729 474.783464,116.063729 C468.697023,116.063729 464.468549,119.459322 464.404481,125.225424 C464.340413,136.693559 481.126176,132.913559 481.126176,140.025085 C481.126176,142.331525 478.627532,143.805085 475.680413,143.805085 C472.605159,143.805085 469.65804,142.908136 466.967193,141.62678 C466.518718,141.370508 465.942108,141.562712 465.749905,142.075254 L464.276345,145.022373 C464.084142,145.534915 464.276345,146.111525 464.72482,146.367797 C468.184481,148.225763 471.451939,149.122712 476.06482,149.122712 C482.727871,149.122712 487.725159,145.470847 487.725159,139.961017 C487.725159,127.980339 470.490922,130.86339 470.490922,124.969153 L470.490922,124.969153 Z M496.182108,121.893898 L496.182108,140.922034 C496.182108,143.036271 496.758718,148.866441 502.973294,148.866441 C504.25465,148.866441 507.009566,148.738305 510.020752,147.905424 C510.597362,147.777288 510.917701,147.264746 510.789566,146.688136 L510.212955,143.869153 C510.08482,143.35661 509.572278,143.036271 509.059735,143.100339 C507.650244,143.420678 506.625159,143.612881 505.856345,143.676949 C502.973294,143.93322 502.588888,141.947119 502.588888,139.832881 L502.588888,121.893898 L508.226854,121.893898 C508.739396,121.893898 509.187871,121.445424 509.187871,120.932881 L509.187871,117.537288 C509.187871,117.024746 508.739396,116.576271 508.226854,116.576271 L502.588888,116.576271 L502.588888,111.194576 C502.588888,110.682034 502.140413,110.233559 501.627871,110.233559 L497.783803,110.233559 C497.207193,110.233559 496.758718,110.682034 496.69465,111.194576 L496.182108,116.576271 L493.170922,116.576271 C492.658379,116.576271 492.209905,117.024746 492.209905,117.537288 L492.209905,120.932881 C492.209905,121.445424 492.658379,121.893898 493.170922,121.893898 L496.182108,121.893898 Z M531.419396,116.063729 C519.118379,116.063729 515.466515,125.866102 515.466515,132.59322 C515.466515,139.512542 519.118379,149.122712 531.419396,149.122712 C543.720413,149.122712 547.372278,139.512542 547.372278,132.59322 C547.372278,125.866102 543.720413,116.063729 531.419396,116.063729 L531.419396,116.063729 Z M531.419396,143.805085 C523.026515,143.805085 521.809227,135.412203 521.809227,132.59322 C521.809227,129.774237 523.026515,121.381356 531.419396,121.381356 C539.812278,121.381356 541.029566,129.774237 541.029566,132.59322 C541.029566,135.412203 539.812278,143.805085 531.419396,143.805085 L531.419396,143.805085 Z M573.832278,117.345085 C573.960413,116.832542 573.576006,116.32 573.063464,116.255932 C572.166515,116.127797 571.71804,116.063729 570.949227,116.063729 C567.489566,116.063729 564.029905,117.216949 561.274989,119.843729 L560.506176,117.47322 C560.313972,116.960678 559.80143,116.576271 559.22482,116.576271 L557.302786,116.576271 C556.790244,116.576271 556.341769,117.024746 556.341769,117.537288 L556.341769,147.649153 C556.341769,148.161695 556.790244,148.610169 557.302786,148.610169 L561.787532,148.610169 C562.300074,148.610169 562.748549,148.161695 562.748549,147.649153 L562.748549,125.994237 C563.645498,123.431525 566.848888,121.701695 570.500752,121.701695 C571.013294,121.701695 571.525837,121.701695 572.038379,121.765763 C572.550922,121.829831 573.063464,121.509492 573.1916,120.996949 L573.832278,117.345085 Z M583.954989,117.47322 C583.698718,116.960678 583.186176,116.576271 582.609566,116.576271 L577.54821,116.576271 C577.099735,116.576271 576.779396,117.024746 576.9716,117.47322 L589.721091,147.328814 L584.211261,160.462712 C584.019057,160.911186 584.339396,161.359661 584.787871,161.359661 L589.657023,161.359661 C590.233633,161.359661 590.746176,161.039322 591.002447,160.462712 L609.197701,117.47322 C609.389905,117.024746 609.069566,116.576271 608.621091,116.576271 L603.367532,116.576271 C602.790922,116.576271 602.278379,116.960678 602.022108,117.47322 L593.116684,139.704746 L583.954989,117.47322 Z" id="Making-History-2" fill="#E74559" sketch:type="MSShapeGroup"></path>
            </g>
        </g>
    </g>
</svg>